<svg width="55" height="38" viewBox="0 0 55 38" fill="none" xmlns="http://www.w3.org/2000/svg">
<path d="M52.1244 18.8118C52.7921 18.8118 53.2711 18.957 53.5614 19.2473C53.8808 19.5376 54.0404 19.915 54.0404 20.3795C54.0404 21.1343 53.8082 21.802 53.3437 22.3826C52.9083 22.9632 52.2115 23.268 51.2535 23.297C48.9601 23.3261 46.8989 23.1519 45.07 22.7745C43.0378 27.1001 40.5848 30.6998 37.7107 33.5739C34.8657 36.4189 32.0498 37.8414 29.2628 37.8414C26.7081 37.8414 24.7921 36.4915 23.5148 33.7916C22.2374 31.0627 21.5117 27.4194 21.3375 22.8616C19.5956 27.9129 17.6216 31.6724 15.4152 34.14C13.238 36.6076 10.9155 37.8414 8.4479 37.8414C5.66097 37.8414 3.55625 36.114 2.13375 32.6594C0.711249 29.1757 0 24.5018 0 18.6376C0 14.3701 0.377397 9.6817 1.13219 4.57232C1.33541 3.12079 1.69829 2.11923 2.22084 1.56765C2.77242 0.987039 3.62882 0.696734 4.79005 0.696734C5.66097 0.696734 6.32867 0.885432 6.79316 1.26283C7.28668 1.64023 7.53344 2.33696 7.53344 3.35303C7.53344 3.55625 7.50441 3.94816 7.44635 4.52877C6.57543 10.48 6.13997 15.5459 6.13997 19.7263C6.13997 23.6164 6.47382 26.621 7.14153 28.7403C7.80923 30.8595 8.70918 31.9191 9.84137 31.9191C10.8574 31.9191 12.0767 30.8595 13.4992 28.7403C14.9508 26.592 16.3878 23.4277 17.8103 19.2473C19.2328 15.0378 20.4375 10.0301 21.4246 4.22395C21.6568 2.88854 22.0778 1.97408 22.6874 1.48056C23.3261 0.958009 24.1825 0.696734 25.2566 0.696734C26.1566 0.696734 26.8097 0.899947 27.2162 1.30637C27.6516 1.68377 27.8694 2.26439 27.8694 3.04821C27.8694 3.5127 27.8403 3.87558 27.7823 4.13686C26.9694 8.86884 26.563 13.6008 26.563 18.3328C26.563 21.5552 26.6646 24.1244 26.8678 26.0404C27.1001 27.9565 27.521 29.4225 28.1306 30.4386C28.7693 31.4256 29.6838 31.9191 30.874 31.9191C32.2675 31.9191 33.8206 30.874 35.5334 28.7838C37.2462 26.6646 38.8139 24.0373 40.2364 20.902C38.4655 19.7989 37.1301 18.3764 36.2302 16.6345C35.3302 14.8637 34.8803 12.8315 34.8803 10.5381C34.8803 8.24469 35.2286 6.31415 35.9254 4.7465C36.6511 3.14982 37.6236 1.95956 38.8429 1.17574C40.0912 0.391913 41.4702 0 42.9798 0C44.8377 0 46.3038 0.667704 47.3779 2.00311C48.4811 3.33852 49.0327 5.16745 49.0327 7.48989C49.0327 10.7703 48.3214 14.4137 46.8989 18.4199C48.3795 18.6812 50.1213 18.8118 52.1244 18.8118ZM39.2784 10.2333C39.2784 13.0783 40.1929 15.183 42.0218 16.5474C43.154 13.296 43.7201 10.6107 43.7201 8.49145C43.7201 7.27216 43.5604 6.38673 43.2411 5.83515C42.9217 5.25454 42.4863 4.96423 41.9347 4.96423C41.1509 4.96423 40.5122 5.42872 40.0187 6.3577C39.5252 7.25765 39.2784 8.54951 39.2784 10.2333Z" fill="#093317"/>
</svg>
