<svg width="30" height="22" viewBox="0 0 30 22" fill="none" xmlns="http://www.w3.org/2000/svg">
<path fill-rule="evenodd" clip-rule="evenodd" d="M7.97848 18.3434C5.37742 16.1547 3.13527 13.1564 2.30897 11.9791L0 8.68912L4.01622 8.53057C9.77185 8.30335 13.9353 9.50306 16.4379 11.4539C17.6921 12.4315 18.6182 13.6766 18.9488 15.0946C19.2919 16.5667 18.9432 18.068 17.9204 19.2187C17.2026 20.0262 16.3331 20.5945 15.3388 20.8705C14.3591 21.1425 13.3923 21.094 12.5168 20.8839C10.8297 20.4789 9.25882 19.4208 7.97848 18.3434ZM14.1664 16.6475C14.2678 16.6194 14.4292 16.5494 14.6448 16.307C14.6856 16.261 14.7131 16.2297 14.6805 16.0895C14.6352 15.8952 14.4335 15.4483 13.7435 14.9105C12.8451 14.2101 11.2721 13.491 8.86534 13.1275C9.47217 13.7795 10.1276 14.424 10.8003 14.99C11.8994 15.9148 12.8418 16.4547 13.5397 16.6222C13.8567 16.6983 14.0505 16.6797 14.1664 16.6475Z" fill="white"/>
<path fill-rule="evenodd" clip-rule="evenodd" d="M26.9379 9.05124C27.9375 6.87056 28.5913 4.32868 28.8116 3.08662L29.3591 0L26.5671 1.42543C23.0694 3.21118 20.6982 5.46548 19.62 7.56813C19.0884 8.60466 18.7847 9.78204 19.0577 10.8941C19.3617 12.1324 20.2978 12.9579 21.5173 13.2565C23.0105 13.6222 24.2213 12.8717 25.0158 12.0572C25.8092 11.2437 26.4428 10.1313 26.9379 9.05124ZM22.2619 10.2279C22.261 10.2277 22.2601 10.2275 22.2592 10.2273C22.1568 10.2022 22.1076 10.1747 22.0898 10.1627C22.0889 10.1598 22.0878 10.1558 22.0865 10.1506C22.062 10.0506 22.0446 9.67481 22.3951 8.99127C22.7858 8.22946 23.5301 7.30022 24.6766 6.34632C24.5025 6.82213 24.3107 7.29806 24.1028 7.75167C23.6648 8.70707 23.2091 9.44284 22.7831 9.87966C22.5764 10.0915 22.4272 10.1803 22.3468 10.2132C22.2922 10.2356 22.2767 10.2317 22.2619 10.2279Z" fill="white"/>
</svg>
