<svg width="19" height="18" viewBox="0 0 19 18" fill="none" xmlns="http://www.w3.org/2000/svg">
<path d="M8.52438 0.57255C8.77242 -0.190822 9.85239 -0.190824 10.1004 0.572548L11.7307 5.59015C11.8417 5.93154 12.1598 6.16268 12.5188 6.16268H17.7946C18.5972 6.16268 18.931 7.18979 18.2816 7.66158L14.0134 10.7626C13.723 10.9736 13.6015 11.3476 13.7124 11.689L15.3427 16.7066C15.5907 17.47 14.717 18.1048 14.0677 17.633L9.79942 14.5319C9.50902 14.3209 9.11578 14.3209 8.82538 14.5319L4.55715 17.633C3.90779 18.1048 3.03408 17.47 3.28211 16.7066L4.91243 11.689C5.02335 11.3476 4.90184 10.9736 4.61143 10.7626L0.343207 7.66158C-0.306156 7.18979 0.0275707 6.16268 0.830227 6.16268H6.10605C6.46501 6.16268 6.78314 5.93154 6.89407 5.59015L8.52438 0.57255Z" fill="#F1C500"/>
</svg>
