<svg width="13" height="16" viewBox="0 0 13 16" fill="none" xmlns="http://www.w3.org/2000/svg">
<path fill-rule="evenodd" clip-rule="evenodd" d="M5.02689 0.0652129C3.02786 0.421439 1.47621 1.57229 0.609364 3.34159C-0.640975 5.89357 0.0419673 9.04943 2.57402 12.4196C3.63411 13.8304 5.76312 16 6.0876 16C6.21036 16 6.7993 15.4818 7.39621 14.8483C10.3919 11.6693 12.1752 8.38304 12.1842 6.02493C12.1939 3.44195 10.4845 1.05122 8.09633 0.307885C7.18977 0.0257428 5.84492 -0.0805895 5.02689 0.0652129ZM7.17869 3.49325C9.09653 4.29435 9.48911 6.93025 7.88728 8.25069C6.04414 9.76997 3.29494 8.48327 3.29494 6.10138C3.29494 4.94567 3.93804 3.94298 4.96463 3.49835C5.53327 3.25207 6.59548 3.24958 7.17869 3.49325Z" fill="#093317"/>
</svg>
