<svg width="16" height="16" viewBox="0 0 16 16" fill="none" xmlns="http://www.w3.org/2000/svg">
<path fill-rule="evenodd" clip-rule="evenodd" d="M0.791395 0.248048C-0.0261098 0.785956 -0.167098 1.51594 0.171349 3.45684C1.12821 8.94423 5.10167 13.5533 10.3553 15.2702C11.6848 15.7045 13.8564 16.0824 14.4605 15.9844C15.0366 15.891 15.4565 15.6089 15.7597 15.1116C15.96 14.783 16.0037 14.4791 16.0041 13.4115C16.0046 11.9586 15.8054 11.4305 15.1236 11.078C14.6743 10.8457 12.0697 10.5417 11.5096 10.6562C11.2121 10.7171 10.7908 11.039 10.0692 11.7568L9.04933 12.7714L7.92544 12.0423C6.10424 10.8607 4.76147 9.48551 3.68954 7.70438L3.24028 6.958L4.22995 5.94404C4.7964 5.36381 5.25931 4.77269 5.3124 4.56195C5.36349 4.35936 5.33832 3.52295 5.25656 2.70319C5.01778 0.309778 4.70262 -0.00137279 2.51931 4.53369e-06C1.38415 0.00063059 1.10668 0.0404477 0.791395 0.248048ZM8.26513 0.254434C7.9168 0.578982 7.89827 1.25362 8.22932 1.55338C8.36042 1.67195 8.84048 1.847 9.29612 1.94241C10.4083 2.17505 11.5347 2.79435 12.3718 3.63351C13.2223 4.48583 13.6813 5.31873 14.0041 6.59464C14.3589 7.99725 14.9957 8.40682 15.7103 7.69224C15.9956 7.40701 16.0212 7.30809 15.944 6.7931C15.4747 3.66306 13.0735 0.98116 10.039 0.197713C9.01678 -0.0661072 8.59469 -0.0527093 8.26513 0.254434ZM8.26326 3.92C7.72961 4.48808 7.96989 5.15095 8.84499 5.5247C9.62981 5.85989 10.0925 6.31504 10.4442 7.09798C10.8749 8.0566 11.4861 8.28536 12.066 7.70526C12.4631 7.30834 12.4533 6.99168 12.016 6.07188C11.4207 4.82001 9.89213 3.63026 8.87892 3.63026C8.68184 3.63026 8.41952 3.75372 8.26326 3.92Z" fill="white"/>
</svg>
