<svg width="273" height="60" viewBox="0 0 273 60" fill="none" xmlns="http://www.w3.org/2000/svg">
<path d="M253.645 59.6053V58.9918H257.739V59.6053H253.645ZM253.645 51.9609V51.3474H257.739V51.9609H253.645ZM253.645 55.382V54.7685H257.503V55.382H253.645ZM253.303 51.3474H253.952V59.6053H253.303V51.3474Z" fill="#093317"/>
<path d="M246.291 55.6651H247.01L249.83 59.6053H249.028L246.291 55.6651ZM244.887 51.3474H245.536V59.6053H244.887V51.3474ZM245.229 51.9255V51.3474H246.774C247.309 51.3474 247.785 51.4418 248.202 51.6305C248.627 51.8193 248.961 52.0906 249.205 52.4445C249.448 52.7984 249.57 53.231 249.57 53.7422C249.57 54.2455 249.448 54.6781 249.205 55.0399C248.961 55.4016 248.627 55.6769 248.202 55.8656C247.785 56.0465 247.309 56.137 246.774 56.137H245.229V55.5589H246.774C247.191 55.5589 247.561 55.4921 247.883 55.3584C248.214 55.2168 248.469 55.0123 248.65 54.7449C248.831 54.4697 248.922 54.1354 248.922 53.7422C248.922 53.349 248.827 53.0186 248.638 52.7512C248.458 52.4838 248.206 52.2794 247.883 52.1378C247.561 51.9962 247.191 51.9255 246.774 51.9255H245.229Z" fill="#093317"/>
<path d="M235.806 56.833L236.019 56.2195H239.829L240.041 56.833H235.806ZM237.906 52.5271L236.302 56.4319L236.231 56.5734L234.992 59.6053H234.261L237.906 51.0289L241.551 59.6053H240.82L239.593 56.6206L239.534 56.4673L237.906 52.5271Z" fill="#093317"/>
<path d="M225.225 55.4763C225.225 56.1763 225.375 56.7937 225.674 57.3285C225.972 57.8633 226.374 58.284 226.877 58.5907C227.38 58.8975 227.943 59.0508 228.564 59.0508C228.957 59.0508 229.315 59.0076 229.637 58.9211C229.96 58.8345 230.251 58.7048 230.51 58.5318C230.778 58.3587 231.014 58.1543 231.218 57.9183V58.7913C230.872 59.098 230.495 59.33 230.086 59.4873C229.677 59.6367 229.169 59.7115 228.564 59.7115C227.99 59.7115 227.455 59.6092 226.959 59.4047C226.472 59.1924 226.047 58.8975 225.685 58.52C225.324 58.1425 225.041 57.6942 224.836 57.1751C224.632 56.656 224.529 56.0898 224.529 55.4763C224.529 54.8629 224.632 54.2966 224.836 53.7776C225.041 53.2585 225.324 52.8102 225.685 52.4327C226.047 52.0552 226.472 51.7642 226.959 51.5597C227.455 51.3474 227.99 51.2412 228.564 51.2412C229.169 51.2412 229.677 51.3199 230.086 51.4772C230.495 51.6266 230.872 51.8547 231.218 52.1614V53.0226C231.014 52.7866 230.778 52.5861 230.51 52.4209C230.243 52.2479 229.948 52.1181 229.626 52.0316C229.303 51.9451 228.949 51.9019 228.564 51.9019C227.943 51.9019 227.38 52.0552 226.877 52.3619C226.374 52.6608 225.972 53.0776 225.674 53.6124C225.375 54.1472 225.225 54.7685 225.225 55.4763Z" fill="#093317"/>
<path d="M214.352 51.3474H215.001V59.9238L208.725 52.7158V59.6053H208.076V51.0289L214.352 58.2604V51.3474Z" fill="#093317"/>
<path d="M199.875 59.6053V58.9918H203.969V59.6053H199.875ZM199.875 51.9609V51.3474H203.969V51.9609H199.875ZM199.875 55.382V54.7685H203.733V55.382H199.875ZM199.533 51.3474H200.182V59.6053H199.533V51.3474Z" fill="#093317"/>
<path d="M189.481 51.3474H190.13V59.6053H189.481V51.3474ZM191.722 59.6053H189.835V58.9565H191.722C192.233 58.9565 192.697 58.8739 193.114 58.7087C193.539 58.5436 193.901 58.3116 194.2 58.0127C194.498 57.706 194.726 57.3403 194.884 56.9156C195.049 56.483 195.131 56.0033 195.131 55.4763C195.131 54.9494 195.049 54.4736 194.884 54.0489C194.726 53.6164 194.498 53.2507 194.2 52.9518C193.901 52.6451 193.539 52.4091 193.114 52.244C192.697 52.0788 192.233 51.9962 191.722 51.9962H189.835V51.3474H191.722C192.524 51.3474 193.228 51.5204 193.834 51.8665C194.447 52.2125 194.923 52.6962 195.261 53.3175C195.607 53.9309 195.78 54.6506 195.78 55.4763C195.78 56.3021 195.607 57.0257 195.261 57.647C194.923 58.2604 194.447 58.7402 193.834 59.0862C193.228 59.4323 192.524 59.6053 191.722 59.6053Z" fill="#093317"/>
<path d="M182.468 55.6651H183.188L186.007 59.6053H185.205L182.468 55.6651ZM181.064 51.3474H181.713V59.6053H181.064V51.3474ZM181.407 51.9255V51.3474H182.952C183.487 51.3474 183.963 51.4418 184.379 51.6305C184.804 51.8193 185.138 52.0906 185.382 52.4445C185.626 52.7984 185.748 53.231 185.748 53.7422C185.748 54.2455 185.626 54.6781 185.382 55.0399C185.138 55.4016 184.804 55.6769 184.379 55.8656C183.963 56.0465 183.487 56.137 182.952 56.137H181.407V55.5589H182.952C183.369 55.5589 183.738 55.4921 184.061 55.3584C184.391 55.2168 184.647 55.0123 184.828 54.7449C185.009 54.4697 185.099 54.1354 185.099 53.7422C185.099 53.349 185.005 53.0186 184.816 52.7512C184.635 52.4838 184.383 52.2794 184.061 52.1378C183.738 51.9962 183.369 51.9255 182.952 51.9255H181.407Z" fill="#093317"/>
<path d="M171.984 56.833L172.196 56.2195H176.007L176.219 56.833H171.984ZM174.084 52.5271L172.479 56.4319L172.409 56.5734L171.17 59.6053H170.438L174.084 51.0289L177.729 59.6053H176.998L175.771 56.6206L175.712 56.4673L174.084 52.5271Z" fill="#093317"/>
<path d="M164.195 56.1016V55.4881H167.864C167.864 56.0465 167.778 56.5813 167.605 57.0925C167.432 57.5959 167.176 58.0441 166.838 58.4374C166.5 58.8306 166.091 59.1413 165.611 59.3693C165.131 59.5974 164.588 59.7115 163.983 59.7115C163.393 59.7115 162.846 59.6092 162.343 59.4047C161.848 59.1924 161.411 58.8975 161.034 58.52C160.664 58.1425 160.377 57.6942 160.172 57.1751C159.968 56.656 159.866 56.0898 159.866 55.4763C159.866 54.8629 159.968 54.2966 160.172 53.7776C160.377 53.2585 160.664 52.8102 161.034 52.4327C161.411 52.0552 161.848 51.7642 162.343 51.5597C162.846 51.3474 163.393 51.2412 163.983 51.2412C164.494 51.2412 164.958 51.312 165.375 51.4536C165.8 51.5951 166.177 51.7996 166.507 52.067C166.838 52.3265 167.121 52.6411 167.357 53.0108L166.885 53.4237C166.61 52.9675 166.224 52.5979 165.729 52.3148C165.233 52.0316 164.651 51.8901 163.983 51.8901C163.338 51.8901 162.756 52.0434 162.237 52.3501C161.718 52.6569 161.305 53.0776 160.998 53.6124C160.699 54.1472 160.55 54.7685 160.55 55.4763C160.55 56.1763 160.699 56.7976 160.998 57.3403C161.305 57.8751 161.714 58.2958 162.225 58.6025C162.744 58.9093 163.33 59.0626 163.983 59.0626C164.447 59.0626 164.864 58.984 165.233 58.8267C165.603 58.6694 165.921 58.4531 166.189 58.1778C166.464 57.9026 166.684 57.588 166.85 57.2341C167.015 56.8802 167.117 56.5027 167.156 56.1016H164.195Z" fill="#093317"/>
<path d="M144.507 51.3474H145.156V59.6053H144.507V51.3474ZM146.748 59.6053H144.861V58.9565H146.748C147.26 58.9565 147.724 58.8739 148.141 58.7087C148.565 58.5436 148.927 58.3116 149.226 58.0127C149.525 57.706 149.753 57.3403 149.91 56.9156C150.075 56.483 150.158 56.0033 150.158 55.4763C150.158 54.9494 150.075 54.4736 149.91 54.0489C149.753 53.6164 149.525 53.2507 149.226 52.9518C148.927 52.6451 148.565 52.4091 148.141 52.244C147.724 52.0788 147.26 51.9962 146.748 51.9962H144.861V51.3474H146.748C147.551 51.3474 148.255 51.5204 148.86 51.8665C149.474 52.2125 149.949 52.6962 150.288 53.3175C150.634 53.9309 150.807 54.6506 150.807 55.4763C150.807 56.3021 150.634 57.0257 150.288 57.647C149.949 58.2604 149.474 58.7402 148.86 59.0862C148.255 59.4323 147.551 59.6053 146.748 59.6053Z" fill="#093317"/>
<path d="M139.636 51.3474H140.285V59.9238L134.009 52.7158V59.6053H133.36V51.0289L139.636 58.2604V51.3474Z" fill="#093317"/>
<path d="M124.28 56.833L124.492 56.2195H128.303L128.515 56.833H124.28ZM126.38 52.5271L124.775 56.4319L124.704 56.5734L123.466 59.6053H122.734L126.38 51.0289L130.025 59.6053H129.293L128.067 56.6206L128.008 56.4673L126.38 52.5271Z" fill="#093317"/>
<path d="M110.356 56.1016V55.4881H114.025C114.025 56.0465 113.938 56.5813 113.765 57.0925C113.592 57.5959 113.337 58.0441 112.998 58.4374C112.66 58.8306 112.251 59.1413 111.771 59.3693C111.292 59.5974 110.749 59.7115 110.144 59.7115C109.554 59.7115 109.007 59.6092 108.504 59.4047C108.008 59.1924 107.572 58.8975 107.194 58.52C106.825 58.1425 106.538 57.6942 106.333 57.1751C106.129 56.656 106.026 56.0898 106.026 55.4763C106.026 54.8629 106.129 54.2966 106.333 53.7776C106.538 53.2585 106.825 52.8102 107.194 52.4327C107.572 52.0552 108.008 51.7642 108.504 51.5597C109.007 51.3474 109.554 51.2412 110.144 51.2412C110.655 51.2412 111.119 51.312 111.536 51.4536C111.96 51.5951 112.338 51.7996 112.668 52.067C112.998 52.3265 113.282 52.6411 113.517 53.0108L113.046 53.4237C112.77 52.9675 112.385 52.5979 111.889 52.3148C111.394 52.0316 110.812 51.8901 110.144 51.8901C109.499 51.8901 108.917 52.0434 108.398 52.3501C107.878 52.6569 107.466 53.0776 107.159 53.6124C106.86 54.1472 106.711 54.7685 106.711 55.4763C106.711 56.1763 106.86 56.7976 107.159 57.3403C107.466 57.8751 107.875 58.2958 108.386 58.6025C108.905 58.9093 109.491 59.0626 110.144 59.0626C110.608 59.0626 111.024 58.984 111.394 58.8267C111.764 58.6694 112.082 58.4531 112.35 58.1778C112.625 57.9026 112.845 57.588 113.01 57.2341C113.175 56.8802 113.278 56.5027 113.317 56.1016H110.356Z" fill="#093317"/>
<path d="M101.628 51.3474H102.276V59.9238L96.0004 52.7158V59.6053H95.3516V51.0289L101.628 58.2604V51.3474Z" fill="#093317"/>
<path d="M90.5061 51.3474H91.1549V59.6053H90.5061V51.3474Z" fill="#093317"/>
<path d="M82.1362 51.3474H82.7851V59.6053H82.1362V51.3474ZM82.5019 51.9609V51.3474H84.0709C84.59 51.3474 85.0501 51.4457 85.4512 51.6423C85.8601 51.8389 86.1826 52.1181 86.4185 52.4799C86.6545 52.8417 86.7724 53.2782 86.7724 53.7894C86.7724 54.2927 86.6545 54.7292 86.4185 55.0988C86.1826 55.4685 85.8601 55.7516 85.4512 55.9482C85.0501 56.137 84.59 56.2314 84.0709 56.2314H82.5019V55.6179H84.0709C84.6765 55.6179 85.168 55.4606 85.5456 55.146C85.9231 54.8314 86.1118 54.3792 86.1118 53.7894C86.1118 53.1917 85.9231 52.7395 85.5456 52.4327C85.168 52.1181 84.6765 51.9609 84.0709 51.9609H82.5019Z" fill="#093317"/>
<path d="M73.0557 56.833L73.268 56.2195H77.0784L77.2908 56.833H73.0557ZM75.1555 52.5271L73.5511 56.4319L73.4803 56.5734L72.2417 59.6053H71.5103L75.1555 51.0289L78.8008 59.6053H78.0694L76.8425 56.6206L76.7835 56.4673L75.1555 52.5271Z" fill="#093317"/>
<path d="M62.4748 55.4763C62.4748 56.1763 62.6243 56.7937 62.9231 57.3285C63.222 57.8633 63.6231 58.284 64.1264 58.5907C64.6297 58.8975 65.1921 59.0508 65.8134 59.0508C66.2066 59.0508 66.5644 59.0076 66.8869 58.9211C67.2093 58.8345 67.5003 58.7048 67.7599 58.5318C68.0273 58.3587 68.2632 58.1543 68.4677 57.9183V58.7913C68.1216 59.098 67.7441 59.33 67.3352 59.4873C66.9262 59.6367 66.419 59.7115 65.8134 59.7115C65.2393 59.7115 64.7045 59.6092 64.209 59.4047C63.7214 59.1924 63.2967 58.8975 62.9349 58.52C62.5731 58.1425 62.29 57.6942 62.0855 57.1751C61.8811 56.656 61.7788 56.0898 61.7788 55.4763C61.7788 54.8629 61.8811 54.2966 62.0855 53.7776C62.29 53.2585 62.5731 52.8102 62.9349 52.4327C63.2967 52.0552 63.7214 51.7642 64.209 51.5597C64.7045 51.3474 65.2393 51.2412 65.8134 51.2412C66.419 51.2412 66.9262 51.3199 67.3352 51.4772C67.7441 51.6266 68.1216 51.8547 68.4677 52.1614V53.0226C68.2632 52.7866 68.0273 52.5861 67.7599 52.4209C67.4925 52.2479 67.1976 52.1181 66.8751 52.0316C66.5527 51.9451 66.1987 51.9019 65.8134 51.9019C65.1921 51.9019 64.6297 52.0552 64.1264 52.3619C63.6231 52.6608 63.222 53.0776 62.9231 53.6124C62.6243 54.1472 62.4748 54.7685 62.4748 55.4763Z" fill="#093317"/>
<path d="M53.8814 57.2223C54.0151 57.5683 54.1764 57.8829 54.3651 58.166C54.5617 58.4492 54.8016 58.6773 55.0847 58.8503C55.3679 59.0154 55.706 59.098 56.0993 59.098C56.6341 59.098 57.0509 58.9525 57.3498 58.6615C57.6565 58.3627 57.8098 57.9852 57.8098 57.529C57.8098 57.1279 57.7194 56.8055 57.5385 56.5617C57.3576 56.3179 57.1217 56.1212 56.8307 55.9718C56.5476 55.8145 56.2487 55.6769 55.9341 55.5589C55.6982 55.4724 55.4504 55.3702 55.1909 55.2522C54.9392 55.1264 54.7033 54.9769 54.4831 54.8039C54.2629 54.623 54.082 54.4067 53.9404 54.1551C53.8067 53.9034 53.7399 53.6006 53.7399 53.2467C53.7399 52.8535 53.8343 52.5074 54.023 52.2086C54.2118 51.9019 54.4752 51.6659 54.8134 51.5008C55.1516 51.3277 55.533 51.2412 55.9577 51.2412C56.3981 51.2412 56.7756 51.3238 57.0902 51.489C57.4127 51.6541 57.6801 51.8625 57.8924 52.1142C58.1048 52.3659 58.266 52.6254 58.3761 52.8928L57.8098 53.2113C57.7233 52.999 57.5975 52.7906 57.4323 52.5861C57.275 52.3816 57.0745 52.2125 56.8307 52.0788C56.5869 51.9372 56.2841 51.8665 55.9223 51.8665C55.4426 51.8665 55.0729 51.9923 54.8134 52.244C54.5539 52.4878 54.4241 52.7945 54.4241 53.1641C54.4241 53.4709 54.4988 53.7343 54.6483 53.9545C54.7977 54.1747 55.0218 54.3753 55.3207 54.5562C55.6195 54.7292 55.9892 54.8944 56.4296 55.0516C56.6577 55.1382 56.8936 55.2443 57.1374 55.3702C57.3812 55.496 57.6014 55.6533 57.798 55.842C58.0025 56.0308 58.1677 56.2589 58.2935 56.5263C58.4194 56.7858 58.4823 57.0965 58.4823 57.4582C58.4823 57.7964 58.4194 58.1031 58.2935 58.3784C58.1755 58.6537 58.0065 58.8935 57.7862 59.098C57.5739 59.2946 57.3222 59.448 57.0312 59.5581C56.7402 59.6603 56.4257 59.7115 56.0875 59.7115C55.6077 59.7115 55.187 59.6131 54.8252 59.4165C54.4634 59.2199 54.1606 58.9564 53.9168 58.6261C53.673 58.2958 53.4843 57.938 53.3506 57.5526L53.8814 57.2223Z" fill="#093317"/>
<path d="M43.7705 51.3474H44.4193V59.6053H43.7705V51.3474ZM46.0119 59.6053H44.1244V58.9565H46.0119C46.5231 58.9565 46.9872 58.8739 47.404 58.7087C47.8287 58.5436 48.1904 58.3116 48.4893 58.0127C48.7882 57.706 49.0162 57.3403 49.1735 56.9156C49.3387 56.483 49.4213 56.0033 49.4213 55.4763C49.4213 54.9494 49.3387 54.4736 49.1735 54.0489C49.0162 53.6164 48.7882 53.2507 48.4893 52.9518C48.1904 52.6451 47.8287 52.4091 47.404 52.244C46.9872 52.0788 46.5231 51.9962 46.0119 51.9962H44.1244V51.3474H46.0119C46.8141 51.3474 47.518 51.5204 48.1236 51.8665C48.737 52.2125 49.2128 52.6962 49.551 53.3175C49.8971 53.9309 50.0701 54.6506 50.0701 55.4763C50.0701 56.3021 49.8971 57.0257 49.551 57.647C49.2128 58.2604 48.737 58.7402 48.1236 59.0862C47.518 59.4323 46.8141 59.6053 46.0119 59.6053Z" fill="#093317"/>
<path d="M38.8995 51.3474H39.5484V59.9238L33.2724 52.7158V59.6053H32.6235V51.0289L38.8995 58.2604V51.3474Z" fill="#093317"/>
<path d="M23.543 56.833L23.7553 56.2195H27.5657L27.7781 56.833H23.543ZM25.6428 52.5271L24.0384 56.4319L23.9677 56.5734L22.729 59.6053H21.9976L25.6428 51.0289L29.2881 59.6053H28.5567L27.3298 56.6206L27.2708 56.4673L25.6428 52.5271Z" fill="#093317"/>
<path d="M15.0649 51.3474H15.7138V58.9918H19.1231V59.6053H15.0649V51.3474Z" fill="#093317"/>
<path d="M264.421 31.2225C264.741 33.603 265.205 35.9545 265.815 38.2769C265.931 38.6543 265.989 39.0462 265.989 39.4527C265.989 40.7591 265.191 41.4122 263.594 41.4122C262.694 41.4122 261.997 41.1655 261.504 40.672C261.039 40.1784 260.604 39.2495 260.197 37.885L260.154 37.7108C259.051 39.0753 258.049 39.9897 257.149 40.4542C256.278 40.9187 255.262 41.151 254.101 41.151C252.33 41.151 250.864 40.4978 249.703 39.1914C248.571 37.856 248.005 36.1287 248.005 34.0094C248.005 31.687 248.498 29.5387 249.485 27.5647C250.472 25.5906 251.822 23.9794 253.535 22.7311C255.248 21.4537 257.164 20.6844 259.283 20.4231C259.835 14.9363 260.88 10.1608 262.418 6.09653C263.986 2.03225 266.062 0.000106812 268.645 0.000106812C269.894 0.000106812 270.924 0.566204 271.737 1.6984C272.579 2.83059 273 4.54339 273 6.83681C273 10.0302 272.216 13.7606 270.648 18.0281C269.081 22.2956 267.005 26.6937 264.421 31.2225ZM268.166 4.2676C267.324 4.2676 266.526 6.41587 265.771 10.7124C265.046 15.0089 264.552 19.6828 264.291 24.7342C267.513 17.7668 269.124 12.1059 269.124 7.75127C269.124 6.64811 269.023 5.79171 268.82 5.18207C268.645 4.57242 268.428 4.2676 268.166 4.2676ZM255.625 36.7528C256.206 36.7528 256.757 36.5351 257.28 36.0996C257.831 35.6642 258.528 34.8223 259.37 33.574C259.08 31.4548 258.935 29.2629 258.935 26.9986C258.935 26.0986 258.949 25.4019 258.978 24.9084C257.382 25.3728 256.061 26.4325 255.016 28.0872C253.97 29.7419 253.448 31.5709 253.448 33.574C253.448 35.6932 254.174 36.7528 255.625 36.7528Z" fill="#093317"/>
<path d="M230.06 41.1509C228.956 41.1509 228.173 40.5703 227.708 39.4091C227.273 38.2479 227.055 36.3899 227.055 33.8352C227.055 30.0612 227.592 26.476 228.666 23.0794C228.927 22.2375 229.348 21.6279 229.929 21.2505C230.539 20.844 231.38 20.6408 232.455 20.6408C233.035 20.6408 233.442 20.7134 233.674 20.8585C233.906 21.0037 234.022 21.2795 234.022 21.6859C234.022 22.1504 233.805 23.1955 233.369 24.8212C233.079 25.9824 232.847 26.9985 232.672 27.8694C232.498 28.7404 232.353 29.8145 232.237 31.0918C233.195 28.5952 234.269 26.5631 235.459 24.9954C236.65 23.4278 237.811 22.3101 238.943 21.6424C240.104 20.9747 241.164 20.6408 242.122 20.6408C244.009 20.6408 244.952 21.5843 244.952 23.4713C244.952 24.6035 244.633 26.6501 243.994 29.6113C243.443 32.1369 243.167 33.8062 243.167 34.619C243.167 35.7803 243.588 36.3609 244.43 36.3609C245.01 36.3609 245.693 36.0125 246.476 35.3158C247.289 34.59 248.363 33.4288 249.699 31.8321C250.047 31.4257 250.439 31.2225 250.875 31.2225C251.252 31.2225 251.542 31.3966 251.745 31.745C251.978 32.0934 252.094 32.5724 252.094 33.182C252.094 34.3433 251.818 35.2432 251.266 35.8819C250.018 37.4205 248.668 38.6833 247.217 39.6704C245.794 40.6574 244.168 41.1509 242.34 41.1509C240.859 41.1509 239.741 40.73 238.987 39.8881C238.232 39.0172 237.854 37.7689 237.854 36.1432C237.854 35.3303 238.058 33.8788 238.464 31.7886C238.841 29.9596 239.03 28.6968 239.03 28.0001C239.03 27.5356 238.87 27.3033 238.551 27.3033C238.174 27.3033 237.637 27.7969 236.94 28.7839C236.272 29.7419 235.575 31.0192 234.85 32.6159C234.153 34.2126 233.587 35.8964 233.151 37.6673C232.832 39.0317 232.455 39.9607 232.019 40.4542C231.613 40.9187 230.96 41.1509 230.06 41.1509Z" fill="#093317"/>
<path d="M211.87 41.151C210.07 41.151 208.633 40.4978 207.558 39.1914C206.484 37.885 205.947 36.1722 205.947 34.053C205.947 31.7306 206.484 29.5387 207.558 27.4776C208.633 25.3874 210.055 23.7181 211.826 22.4698C213.626 21.1925 215.527 20.5538 217.53 20.5538C218.169 20.5538 218.59 20.6844 218.793 20.9457C219.026 21.1779 219.214 21.6134 219.359 22.2521C219.969 22.1359 220.608 22.0779 221.275 22.0779C222.698 22.0779 223.409 22.5859 223.409 23.602C223.409 24.2116 223.191 25.6632 222.756 27.9566C222.088 31.2951 221.754 33.6175 221.754 34.9239C221.754 35.3594 221.856 35.7077 222.059 35.969C222.291 36.2303 222.582 36.3609 222.93 36.3609C223.482 36.3609 224.149 36.0126 224.933 35.3158C225.717 34.5901 226.777 33.4288 228.112 31.8322C228.46 31.4257 228.852 31.2225 229.288 31.2225C229.665 31.2225 229.956 31.3967 230.159 31.7451C230.391 32.0934 230.507 32.5724 230.507 33.1821C230.507 34.3433 230.231 35.2433 229.68 35.8819C228.49 37.3625 227.227 38.6108 225.891 39.6269C224.556 40.643 223.264 41.151 222.016 41.151C221.058 41.151 220.172 40.8316 219.359 40.193C218.576 39.5253 217.98 38.6253 217.574 37.4931C216.064 39.9317 214.163 41.151 211.87 41.151ZM213.437 36.7529C214.076 36.7529 214.685 36.3755 215.266 35.6207C215.847 34.8659 216.268 33.8643 216.529 32.616L218.14 24.6035C216.921 24.6326 215.789 25.0971 214.744 25.997C213.727 26.8679 212.915 28.0292 212.305 29.4807C211.695 30.9322 211.39 32.4708 211.39 34.0966C211.39 34.9965 211.565 35.6642 211.913 36.0997C212.29 36.5351 212.798 36.7529 213.437 36.7529Z" fill="#093317"/>
<path d="M209.239 31.2225C209.617 31.2225 209.907 31.3967 210.11 31.7451C210.342 32.0934 210.458 32.5724 210.458 33.1821C210.458 34.3433 210.183 35.2432 209.631 35.8819C208.383 37.4205 207.018 38.6834 205.538 39.6704C204.086 40.6574 202.431 41.151 200.573 41.151C198.019 41.151 196.117 39.9897 194.869 37.6673C193.65 35.3448 193.04 32.3402 193.04 28.6533C193.04 25.1116 193.49 21.0763 194.39 16.5475C195.319 12.0188 196.669 8.12867 198.44 4.87725C200.24 1.62582 202.373 0.000106812 204.841 0.000106812C206.234 0.000106812 207.323 0.653296 208.107 1.95967C208.92 3.23702 209.326 5.08046 209.326 7.49C209.326 10.9446 208.368 14.9509 206.452 19.5087C204.536 24.0665 201.938 28.5807 198.657 33.0514C198.861 34.2417 199.195 35.0981 199.659 35.6206C200.124 36.1142 200.733 36.3609 201.488 36.3609C202.678 36.3609 203.723 36.0271 204.623 35.3594C205.523 34.6626 206.67 33.4869 208.063 31.8321C208.412 31.4257 208.804 31.2225 209.239 31.2225ZM203.883 4.31115C203.215 4.31115 202.46 5.51592 201.619 7.92546C200.777 10.335 200.036 13.3251 199.398 16.8959C198.759 20.4667 198.411 23.8923 198.353 27.1727C200.414 23.7762 202.054 20.3796 203.273 16.983C204.493 13.5574 205.102 10.4366 205.102 7.62064C205.102 5.41431 204.696 4.31115 203.883 4.31115Z" fill="#093317"/>
<path d="M148.156 26.6066C148.794 26.6066 149.331 26.8388 149.767 27.3033C150.231 27.7388 150.464 28.2904 150.464 28.9581C150.464 29.3355 150.376 29.7419 150.202 30.1774C149.738 31.2515 149.085 32.1514 148.243 32.8772C147.401 33.603 146.472 33.9659 145.456 33.9659C144.643 33.9659 143.946 33.6755 143.366 33.0949C142.814 32.5143 142.538 31.7305 142.538 30.7435C142.538 30.1919 142.567 29.5968 142.625 28.9581C142.683 28.4936 142.712 28.1743 142.712 28.0001C142.712 27.7678 142.654 27.5936 142.538 27.4775C142.451 27.3614 142.335 27.3033 142.19 27.3033C141.783 27.3033 141.232 27.7969 140.535 28.7839C139.838 29.7419 139.142 31.0192 138.445 32.6159C137.748 34.2126 137.182 35.8964 136.747 37.6673C136.427 39.0607 136.064 39.9897 135.658 40.4542C135.251 40.9187 134.584 41.1509 133.655 41.1509C132.552 41.1509 131.768 40.5703 131.303 39.4091C130.868 38.2479 130.65 36.3899 130.65 33.8352C130.65 30.0612 131.187 26.476 132.261 23.0794C132.523 22.2375 132.944 21.6279 133.524 21.2505C134.134 20.844 134.976 20.6408 136.05 20.6408C136.63 20.6408 137.037 20.7134 137.269 20.8585C137.501 21.0037 137.617 21.2795 137.617 21.6859C137.617 22.1504 137.4 23.1955 136.964 24.8212C136.674 25.9824 136.442 26.9985 136.268 27.8694C136.093 28.7404 135.948 29.8145 135.832 31.0918C136.79 28.5952 137.864 26.5631 139.055 24.9954C140.245 23.4278 141.406 22.3101 142.538 21.6424C143.67 20.9747 144.701 20.6408 145.63 20.6408C146.472 20.6408 147.11 20.8876 147.546 21.3811C148.01 21.8456 148.243 22.5423 148.243 23.4713C148.243 24.0229 148.083 25.068 147.764 26.6066H148.156Z" fill="#093317"/>
<path d="M132.889 31.2225C133.267 31.2225 133.557 31.3966 133.76 31.745C133.993 32.0934 134.109 32.5724 134.109 33.182C134.109 34.3433 133.833 35.2432 133.281 35.8819C132.207 37.1883 130.683 38.393 128.709 39.4962C126.764 40.5993 124.674 41.1509 122.438 41.1509C119.39 41.1509 117.024 40.3236 115.34 38.6688C113.657 37.0141 112.815 34.7497 112.815 31.8757C112.815 29.8725 113.236 28.0146 114.078 26.3018C114.919 24.5599 116.081 23.181 117.561 22.1649C119.071 21.1489 120.769 20.6408 122.656 20.6408C124.34 20.6408 125.69 21.1489 126.706 22.1649C127.722 23.152 128.23 24.5019 128.23 26.2147C128.23 28.2178 127.504 29.9451 126.053 31.3967C124.63 32.8192 122.206 33.9513 118.78 34.7932C119.506 36.1286 120.885 36.7963 122.917 36.7963C124.224 36.7963 125.704 36.3464 127.359 35.4464C129.043 34.5174 130.494 33.3127 131.714 31.8321C132.062 31.4257 132.454 31.2225 132.889 31.2225ZM121.916 24.9083C120.842 24.9083 119.927 25.5325 119.172 26.7808C118.447 28.0291 118.084 29.5387 118.084 31.3096V31.3967C119.797 30.9902 121.146 30.3806 122.134 29.5677C123.121 28.7549 123.614 27.8114 123.614 26.7372C123.614 26.1857 123.454 25.7502 123.135 25.4309C122.845 25.0825 122.438 24.9083 121.916 24.9083Z" fill="#093317"/>
<path d="M115.791 31.2225C116.169 31.2225 116.459 31.3967 116.662 31.7451C116.894 32.0934 117.01 32.5724 117.01 33.1821C117.01 34.3433 116.735 35.2432 116.183 35.8819C114.993 37.3334 113.686 38.5818 112.264 39.6269C110.841 40.6429 109.433 41.151 108.04 41.151C105.834 41.151 104.15 39.8591 102.989 37.2754C101.769 38.814 100.695 39.8446 99.7662 40.3671C98.8663 40.8897 97.8067 41.151 96.5874 41.151C94.8165 41.151 93.3505 40.4978 92.1893 39.1914C91.0571 37.856 90.491 36.1287 90.491 34.0094C90.491 31.687 90.9845 29.5387 91.9715 27.5647C92.9586 25.5615 94.3085 23.9358 96.0213 22.6875C97.7631 21.4102 99.7082 20.6554 101.856 20.4231C102.408 14.7912 103.453 9.98663 104.992 6.00944C106.559 2.00322 108.606 0.000106812 111.132 0.000106812C112.38 0.000106812 113.411 0.566204 114.223 1.6984C115.065 2.83059 115.486 4.54339 115.486 6.83681C115.486 10.0882 114.688 13.8912 113.091 18.2458C111.495 22.6004 109.361 27.0711 106.69 31.658C106.806 33.3417 107.053 34.5465 107.43 35.2723C107.837 35.998 108.345 36.3609 108.954 36.3609C109.738 36.3609 110.537 36.0126 111.349 35.3158C112.162 34.6191 113.251 33.4579 114.615 31.8321C114.964 31.4257 115.356 31.2225 115.791 31.2225ZM110.653 4.2676C110.101 4.2676 109.55 5.25464 108.998 7.22872C108.446 9.17377 107.967 11.7285 107.561 14.8928C107.184 18.0571 106.908 21.3666 106.734 24.8213C109.985 17.7378 111.611 12.0478 111.611 7.75127C111.611 6.64811 111.509 5.79171 111.306 5.18207C111.132 4.57242 110.914 4.2676 110.653 4.2676ZM98.1115 36.7528C98.6631 36.7528 99.2147 36.5351 99.7662 36.0996C100.318 35.6352 101.015 34.7933 101.856 33.574C101.566 32.0063 101.421 30.25 101.421 28.3049C101.421 27.6082 101.45 26.476 101.508 24.9084C99.9114 25.4019 98.576 26.476 97.5019 28.1307C96.4568 29.7565 95.9342 31.5709 95.9342 33.574C95.9342 35.6932 96.66 36.7528 98.1115 36.7528Z" fill="#093317"/>
<path d="M72.5462 41.1509C71.443 41.1509 70.6592 40.5703 70.1947 39.4091C69.7592 38.2479 69.5415 36.3899 69.5415 33.8352C69.5415 30.0612 70.0786 26.476 71.1527 23.0794C71.414 22.2375 71.8349 21.6279 72.4155 21.2505C73.0252 20.844 73.8671 20.6408 74.9412 20.6408C75.5218 20.6408 75.9282 20.7134 76.1605 20.8585C76.3927 21.0037 76.5088 21.2795 76.5088 21.6859C76.5088 22.1504 76.2911 23.1955 75.8557 24.8212C75.5654 25.9824 75.3331 26.9985 75.1589 27.8694C74.9847 28.7404 74.8396 29.8145 74.7235 31.0918C75.6815 28.5952 76.7556 26.5631 77.9459 24.9954C79.1361 23.4278 80.2973 22.3101 81.4295 21.6424C82.5908 20.9747 83.6504 20.6408 84.6084 20.6408C86.4954 20.6408 87.4389 21.5843 87.4389 23.4713C87.4389 24.6035 87.1195 26.6501 86.4809 29.6113C85.9293 32.1369 85.6535 33.8062 85.6535 34.619C85.6535 35.7803 86.0744 36.3609 86.9163 36.3609C87.4969 36.3609 88.1791 36.0125 88.963 35.3158C89.7758 34.59 90.85 33.4288 92.1854 31.8321C92.5337 31.4257 92.9256 31.2225 93.3611 31.2225C93.7385 31.2225 94.0288 31.3966 94.232 31.745C94.4643 32.0934 94.5804 32.5724 94.5804 33.182C94.5804 34.3433 94.3046 35.2432 93.753 35.8819C92.5047 37.4205 91.1548 38.6833 89.7033 39.6704C88.2808 40.6574 86.655 41.1509 84.8261 41.1509C83.3456 41.1509 82.2279 40.73 81.4731 39.8881C80.7183 39.0172 80.3409 37.7689 80.3409 36.1432C80.3409 35.3303 80.5441 33.8788 80.9505 31.7886C81.3279 29.9596 81.5166 28.6968 81.5166 28.0001C81.5166 27.5356 81.357 27.3033 81.0376 27.3033C80.6602 27.3033 80.1232 27.7969 79.4264 28.7839C78.7587 29.7419 78.062 31.0192 77.3362 32.6159C76.6395 34.2126 76.0734 35.8964 75.6379 37.6673C75.3186 39.0317 74.9412 39.9607 74.5057 40.4542C74.0993 40.9187 73.4461 41.1509 72.5462 41.1509Z" fill="#093317"/>
<path d="M72.0159 27.5647C72.3933 27.5647 72.6836 27.7534 72.8868 28.1308C73.09 28.5082 73.1916 28.9872 73.1916 29.5678C73.1916 30.9613 72.7707 31.7887 71.9288 32.0499C70.187 32.6596 68.2709 33.008 66.1807 33.095C65.6292 35.5336 64.5405 37.4932 62.9148 38.9737C61.2891 40.4253 59.4456 41.151 57.3845 41.151C55.6426 41.151 54.1476 40.7301 52.8992 39.8882C51.68 39.0463 50.751 37.9286 50.1123 36.5352C49.4736 35.1417 49.1543 33.6321 49.1543 32.0064C49.1543 29.8001 49.5752 27.8405 50.4171 26.1277C51.259 24.3859 52.4202 23.036 53.9008 22.0779C55.3814 21.0909 57.0216 20.5974 58.8215 20.5974C61.0278 20.5974 62.7987 21.3667 64.1341 22.9053C65.4985 24.4149 66.2969 26.2874 66.5291 28.5227C67.8935 28.4356 69.5193 28.1453 71.4062 27.6518C71.6385 27.5938 71.8417 27.5647 72.0159 27.5647ZM57.7328 36.5352C58.6618 36.5352 59.4602 36.1578 60.1279 35.403C60.8246 34.6482 61.2891 33.5595 61.5213 32.137C60.6214 31.5274 59.9246 30.7291 59.4311 29.742C58.9666 28.755 58.7344 27.7099 58.7344 26.6067C58.7344 26.1422 58.7779 25.6777 58.865 25.2132H58.6473C57.4861 25.2132 56.5136 25.7793 55.7297 26.9115C54.9749 28.0147 54.5975 29.5823 54.5975 31.6145C54.5975 33.2112 54.9024 34.4305 55.512 35.2723C56.1507 36.1142 56.8909 36.5352 57.7328 36.5352Z" fill="#093317"/>
<path d="M52.1244 22.1214C52.7921 22.1214 53.2711 22.2666 53.5614 22.5569C53.8808 22.8472 54.0404 23.2246 54.0404 23.6891C54.0404 24.4439 53.8082 25.1116 53.3437 25.6922C52.9083 26.2728 52.2115 26.5776 51.2535 26.6066C48.9601 26.6357 46.8989 26.4615 45.07 26.0841C43.0378 30.4096 40.5848 34.0094 37.7107 36.8835C34.8657 39.7285 32.0498 41.151 29.2628 41.151C26.7081 41.151 24.7921 39.801 23.5148 37.1012C22.2374 34.3723 21.5117 30.729 21.3375 26.1712C19.5956 31.2225 17.6216 34.982 15.4152 37.4496C13.238 39.9172 10.9155 41.151 8.4479 41.151C5.66097 41.151 3.55625 39.4236 2.13375 35.969C0.711249 32.4853 0 27.8114 0 21.9472C0 17.6797 0.377397 12.9913 1.13219 7.8819C1.33541 6.43037 1.69829 5.42882 2.22084 4.87724C2.77242 4.29662 3.62882 4.00632 4.79005 4.00632C5.66097 4.00632 6.32867 4.19502 6.79316 4.57242C7.28668 4.94981 7.53344 5.64655 7.53344 6.66262C7.53344 6.86583 7.50441 7.25775 7.44635 7.83836C6.57543 13.7896 6.13997 18.8555 6.13997 23.0359C6.13997 26.926 6.47382 29.9306 7.14153 32.0499C7.80923 34.1691 8.70918 35.2287 9.84137 35.2287C10.8574 35.2287 12.0767 34.1691 13.4992 32.0499C14.9508 29.9016 16.3878 26.7373 17.8103 22.5569C19.2328 18.3474 20.4375 13.3397 21.4246 7.53354C21.6568 6.19813 22.0778 5.28367 22.6874 4.79014C23.3261 4.26759 24.1825 4.00632 25.2566 4.00632C26.1566 4.00632 26.8097 4.20953 27.2162 4.61596C27.6516 4.99336 27.8694 5.57397 27.8694 6.3578C27.8694 6.82229 27.8403 7.18517 27.7823 7.44644C26.9694 12.1784 26.563 16.9104 26.563 21.6424C26.563 24.8648 26.6646 27.434 26.8678 29.35C27.1001 31.266 27.521 32.7321 28.1306 33.7482C28.7693 34.7352 29.6838 35.2287 30.874 35.2287C32.2675 35.2287 33.8206 34.1836 35.5334 32.0934C37.2462 29.9742 38.8139 27.3469 40.2364 24.2116C38.4655 23.1084 37.1301 21.6859 36.2302 19.9441C35.3302 18.1732 34.8803 16.1411 34.8803 13.8477C34.8803 11.5543 35.2286 9.62374 35.9254 8.05609C36.6511 6.4594 37.6236 5.26915 38.8429 4.48532C40.0912 3.7015 41.4702 3.30959 42.9798 3.30959C44.8377 3.30959 46.3038 3.97729 47.3779 5.3127C48.4811 6.6481 49.0327 8.47703 49.0327 10.7995C49.0327 14.0799 48.3214 17.7233 46.8989 21.7295C48.3795 21.9908 50.1213 22.1214 52.1244 22.1214ZM39.2784 13.5429C39.2784 16.3879 40.1929 18.4926 42.0218 19.857C43.154 16.6056 43.7201 13.9203 43.7201 11.801C43.7201 10.5817 43.5604 9.69632 43.2411 9.14473C42.9217 8.56412 42.4863 8.27382 41.9347 8.27382C41.1509 8.27382 40.5122 8.7383 40.0187 9.66728C39.5252 10.5672 39.2784 11.8591 39.2784 13.5429Z" fill="#093317"/>
<path fill-rule="evenodd" clip-rule="evenodd" d="M164.722 31.0388C162.571 29.2295 160.718 26.7509 160.035 25.7776L158.126 23.0579L161.446 22.9268C166.204 22.739 169.646 23.7307 171.715 25.3434C172.752 26.1516 173.517 27.1809 173.79 28.3531C174.074 29.5701 173.786 30.8112 172.94 31.7624C172.347 32.43 171.628 32.8997 170.806 33.1279C169.996 33.3527 169.197 33.3127 168.473 33.139C167.079 32.8042 165.78 31.9294 164.722 31.0388ZM169.837 29.6369C169.921 29.6136 170.054 29.5558 170.232 29.3553C170.266 29.3173 170.289 29.2915 170.262 29.1756C170.225 29.0149 170.058 28.6455 169.487 28.2009C168.745 27.6219 167.444 27.0274 165.455 26.727C165.956 27.266 166.498 27.7987 167.054 28.2666C167.963 29.0312 168.742 29.4775 169.319 29.616C169.581 29.6789 169.741 29.6635 169.837 29.6369Z" fill="#093317"/>
<path fill-rule="evenodd" clip-rule="evenodd" d="M180.395 23.3572C181.221 21.5545 181.762 19.4532 181.944 18.4264L182.396 15.8748L180.088 17.0531C177.197 18.5294 175.237 20.393 174.345 22.1312C173.906 22.988 173.655 23.9613 173.881 24.8807C174.132 25.9044 174.906 26.5867 175.914 26.8336C177.148 27.1359 178.149 26.5155 178.806 25.8422C179.462 25.1696 179.986 24.25 180.395 23.3572ZM176.529 24.33C176.529 24.3298 176.528 24.3296 176.527 24.3294C176.442 24.3087 176.402 24.2859 176.387 24.2761C176.386 24.2736 176.385 24.2703 176.384 24.266C176.364 24.1833 176.35 23.8727 176.639 23.3076C176.962 22.6779 177.578 21.9097 178.525 21.1211C178.382 21.5145 178.223 21.9079 178.051 22.2829C177.689 23.0727 177.312 23.6809 176.96 24.0421C176.789 24.2172 176.666 24.2906 176.6 24.3178C176.554 24.3363 176.542 24.3331 176.529 24.33Z" fill="#093317"/>
</svg>
